<svg xmlns="http://www.w3.org/2000/svg" viewBox="0 0 110.23 41.97"><defs><style>.cls-1,.cls-2{fill:#541f6b;}.cls-2{stroke:#541f6b;stroke-linecap:round;stroke-linejoin:round;stroke-width:0.34px;}</style></defs><title>Asset 4</title><g id="Layer_2" data-name="Layer 2"><g id="header"><path class="cls-1" d="M58.84,16.32c-.14-.44-.22-.51-.83-.51H55c-.51,0-.63.07-.77.49l-.71,2.13A7.53,7.53,0,0,0,53,20.12c0,.24.1.36.59.4l.67.06a.33.33,0,0,1,0,.51c-.53,0-1.16,0-2.11-.06-.67,0-1.4,0-2,.06a.41.41,0,0,1,0-.51l.67-.06a1.34,1.34,0,0,0,1.21-1c.37-.94.94-2.25,1.79-4.53l2.07-5.48a3,3,0,0,0,.35-1.44,2.22,2.22,0,0,0,1.05-.77.28.28,0,0,1,.3.18c.27.9.59,1.83.9,2.72l2.78,8.16c.59,1.75.85,2.05,1.72,2.15l.55.06a.41.41,0,0,1,0,.51c-.83,0-1.54-.06-2.45-.06s-1.75,0-2.34.06a.35.35,0,0,1,0-.51l.59-.06c.43,0,.71-.16.71-.36a4.2,4.2,0,0,0-.26-1.08Zm-4-1.8c-.16.46-.14.48.43.48h2.5c.59,0,.63-.08.44-.63l-1.09-3.3a12.52,12.52,0,0,0-.47-1.28h0c-.06.1-.26.59-.49,1.19Z"/><path class="cls-1" d="M73.07,14.48c-1,0-1,0-1,.64V18c0,2.13.11,2.41,1.24,2.53l.59.06c.12.08.08.45,0,.51-1.1,0-1.79-.06-2.58-.06s-1.56,0-2.35.06a.4.4,0,0,1,0-.51l.34-.06c1.14-.2,1.18-.4,1.18-2.53V10.68c0-2.13-.14-2.47-1.2-2.56l-.53,0c-.12-.08-.08-.44,0-.5,1,0,1.68.06,2.55.06s1.48,0,2.36-.06c.12.06.16.42,0,.5l-.39,0c-1.18.13-1.22.43-1.22,2.56V13c0,.63,0,.65,1,.65h5.8c1,0,1,0,1-.65V10.68c0-2.13,0-2.43-1.24-2.56l-.39,0c-.12-.08-.08-.44,0-.5.94,0,1.63.06,2.46.06s1.48,0,2.39-.06c.12.06.17.42,0,.5l-.42,0c-1.18.13-1.22.43-1.22,2.56V18c0,2.13,0,2.39,1.22,2.53l.48.06c.13.08.09.45,0,.51-1,0-1.66-.06-2.45-.06s-1.56,0-2.46.06a.4.4,0,0,1,0-.51l.39-.06c1.24-.2,1.24-.4,1.24-2.53V15.12c0-.6,0-.64-1-.64Z"/><path class="cls-1" d="M91.72,10.72c0-2.15,0-2.5-1.24-2.6l-.51,0c-.12-.08-.08-.44,0-.5,1,0,1.71.06,2.56.06s1.5,0,2.52-.06c.12.06.16.42,0,.5l-.51,0c-1.2.1-1.24.45-1.24,2.6V18c0,2.15,0,2.43,1.24,2.57l.51.06c.12.08.08.45,0,.51-1,0-1.71-.06-2.52-.06s-1.54,0-2.56.06a.4.4,0,0,1,0-.51l.51-.06c1.2-.14,1.24-.42,1.24-2.57Z"/><path class="cls-1" d="M105.9,21.35a6.23,6.23,0,0,1-3.16-.75,9.07,9.07,0,0,1-.55-2.84c.1-.14.41-.18.49-.06a3.68,3.68,0,0,0,3.49,3,2.3,2.3,0,0,0,2.53-2.34A3,3,0,0,0,107,15.55l-1.93-1.26a4.33,4.33,0,0,1-2.19-3.49c0-1.93,1.5-3.49,4.14-3.49a7.49,7.49,0,0,1,1.89.27,2.69,2.69,0,0,0,.71.12,8.92,8.92,0,0,1,.36,2.47c-.08.13-.4.19-.5.06a2.67,2.67,0,0,0-2.76-2.29,2.13,2.13,0,0,0-2.42,2.25,3.18,3.18,0,0,0,1.73,2.5l1.62,1a4.59,4.59,0,0,1,2.54,3.9C110.23,19.83,108.54,21.35,105.9,21.35Z"/><path class="cls-2" d="M52.35,29.68c0-.09,0-.11-.17-.11h-.66c-.11,0-.14,0-.17.11l-.15.46a1.72,1.72,0,0,0-.09.36c0,.05,0,.07.12.08l.15,0a.07.07,0,0,1,0,.11l-.46,0-.41,0s0-.09,0-.11l.14,0a.28.28,0,0,0,.26-.21c.08-.2.2-.48.39-1l.44-1.18c.06-.15.09-.23.07-.3a.46.46,0,0,0,.23-.17.07.07,0,0,1,.07,0c0,.19.12.39.19.58l.59,1.75c.13.38.19.44.37.46l.12,0s0,.09,0,.11l-.53,0-.5,0s0-.09,0-.11l.13,0c.09,0,.15,0,.15-.07a1.13,1.13,0,0,0-.05-.24Zm-.86-.38c0,.1,0,.1.09.1h.54c.13,0,.14,0,.1-.14l-.24-.7a1.43,1.43,0,0,0-.1-.28h0l-.1.26Z"/><path class="cls-2" d="M54.84,29a1,1,0,0,1,.07.35s-.09,0-.11,0a.42.42,0,0,0-.38-.32.26.26,0,0,0-.28.27c0,.18.18.27.34.36s.44.28.44.59-.3.49-.63.49a.7.7,0,0,1-.46-.13,1.13,1.13,0,0,1,0-.44.08.08,0,0,1,.1,0c.07.24.21.45.46.45a.27.27,0,0,0,.29-.28c0-.2-.18-.31-.34-.4s-.43-.3-.43-.54.26-.49.59-.49A.72.72,0,0,1,54.84,29Z"/><path class="cls-2" d="M56.59,29a1,1,0,0,1,.07.35s-.08,0-.1,0a.44.44,0,0,0-.39-.32.25.25,0,0,0-.27.27c0,.18.18.27.33.36s.44.28.44.59-.3.49-.62.49a.71.71,0,0,1-.47-.13,1.36,1.36,0,0,1,0-.44s.08,0,.1,0c.07.24.21.45.46.45a.26.26,0,0,0,.29-.28c0-.2-.17-.31-.33-.4s-.43-.3-.43-.54.26-.49.59-.49A.71.71,0,0,1,56.59,29Z"/><path class="cls-2" d="M59.12,29.82a.89.89,0,0,1-.92.93.86.86,0,0,1-.89-.89.91.91,0,0,1,.92-.94A.87.87,0,0,1,59.12,29.82Zm-.94-.77c-.29,0-.5.27-.5.75s.18.82.56.82.5-.4.5-.73S58.6,29.05,58.18,29.05Z"/><path class="cls-2" d="M61.22,29a.26.26,0,0,1,.06.17c0,.08,0,.17-.09.17a.06.06,0,0,1-.06,0,.61.61,0,0,0-.44-.24.63.63,0,0,0-.6.71.71.71,0,0,0,.7.74.52.52,0,0,0,.48-.26.06.06,0,0,1,.08.06.79.79,0,0,1-.73.44.82.82,0,0,1-.59-.22.87.87,0,0,1-.25-.64,1,1,0,0,1,1-1A1.15,1.15,0,0,1,61.22,29Z"/><path class="cls-2" d="M62.14,29.44c0-.17,0-.19-.12-.27l0,0s0-.07,0-.08a4.54,4.54,0,0,0,.45-.21s0,0,0,0,0,.36,0,.54v.79c0,.31,0,.35.16.37l.09,0s0,.09,0,.11l-.41,0-.41,0s0-.09,0-.11l.09,0c.16,0,.17-.06.17-.37Zm.36-1.24a.21.21,0,0,1-.23.23.22.22,0,0,1-.23-.22.23.23,0,0,1,.24-.23A.22.22,0,0,1,62.5,28.2Z"/><path class="cls-2" d="M64.21,29.79c.06,0,.07-.06.07-.12v-.2c0-.17-.05-.38-.32-.38s-.27.06-.28.19a.21.21,0,0,1,0,.15.52.52,0,0,1-.25.08.05.05,0,0,1-.06-.06c0-.22.49-.53.81-.53s.46.18.45.51l0,.75c0,.2,0,.38.2.38l.11,0,.06,0s0,0,0,0a.46.46,0,0,1-.37.19.37.37,0,0,1-.28-.13s0-.06-.07-.06a1,1,0,0,0-.17.08.55.55,0,0,1-.31.11.45.45,0,0,1-.31-.1.4.4,0,0,1-.13-.3c0-.17.08-.27.36-.37Zm-.27.77a.48.48,0,0,0,.26-.11c.06-.05.06-.11.06-.21V30s0-.06,0-.06l-.18,0c-.26.09-.39.16-.39.33A.27.27,0,0,0,63.94,30.56Z"/><path class="cls-2" d="M66.07,29.16c-.08,0-.08,0-.08.1v.82c0,.25,0,.48.32.48l.11,0a.91.91,0,0,0,.11-.06.06.06,0,0,1,0,.07.62.62,0,0,1-.46.2c-.37,0-.45-.21-.45-.47v-1c0-.12,0-.13-.09-.13h-.13a.07.07,0,0,1,0-.09.79.79,0,0,0,.28-.14.94.94,0,0,0,.18-.25s.08,0,.09,0v.19c0,.08,0,.09.08.09h.49a.14.14,0,0,1,0,.18Z"/><path class="cls-2" d="M67.4,29.44c0-.17,0-.19-.12-.27l0,0s0-.07,0-.08a4.54,4.54,0,0,0,.45-.21s0,0,0,0,0,.36,0,.54v.79c0,.31,0,.35.16.37l.1,0s0,.09,0,.11l-.41,0-.41,0s0-.09,0-.11l.09,0c.16,0,.17-.06.17-.37Zm.36-1.24a.21.21,0,0,1-.23.23.21.21,0,0,1-.22-.22.22.22,0,0,1,.23-.23A.22.22,0,0,1,67.76,28.2Z"/><path class="cls-2" d="M70.4,29.82a.88.88,0,0,1-.92.93.86.86,0,0,1-.89-.89.91.91,0,0,1,.93-.94A.87.87,0,0,1,70.4,29.82Zm-.94-.77c-.28,0-.5.27-.5.75s.18.82.57.82.5-.4.5-.73S69.88,29.05,69.46,29.05Z"/><path class="cls-2" d="M71.33,29.44c0-.17,0-.19-.12-.27l0,0s0-.07,0-.08a3.42,3.42,0,0,0,.43-.21s0,0,0,0a1.82,1.82,0,0,0,0,.2,0,0,0,0,0,0,.05,1.22,1.22,0,0,1,.61-.22.48.48,0,0,1,.51.54v.75c0,.31,0,.35.16.37l.1,0s0,.09,0,.11l-.41,0-.4,0s0-.09,0-.11l.08,0c.16,0,.17-.06.17-.37v-.65a.38.38,0,0,0-.41-.43.47.47,0,0,0-.37.15.34.34,0,0,0-.07.26v.67c0,.31,0,.35.17.37l.07,0s0,.09,0,.11l-.4,0-.41,0s0-.09,0-.11l.09,0c.16,0,.17-.06.17-.37Z"/><path class="cls-2" d="M76.94,29.82a.89.89,0,0,1-.92.93.86.86,0,0,1-.89-.89.91.91,0,0,1,.92-.94A.87.87,0,0,1,76.94,29.82ZM76,29.05c-.29,0-.5.27-.5.75s.18.82.56.82.5-.4.5-.73S76.41,29.05,76,29.05Z"/><path class="cls-2" d="M78.25,29.16c-.08,0-.08,0-.08.13v.92c0,.31,0,.36.17.37l.16,0s0,.09,0,.11l-.48,0-.41,0s0-.09,0-.11l.1,0c.16,0,.16-.06.16-.37v-.92c0-.12,0-.13-.08-.13h-.16a.06.06,0,0,1,0-.08l.19-.09a.11.11,0,0,0,.06-.09,1.91,1.91,0,0,1,.14-.77.86.86,0,0,1,.78-.55c.23,0,.43.11.43.26A.17.17,0,0,1,79,28a.12.12,0,0,1-.1-.05.51.51,0,0,0-.35-.2.35.35,0,0,0-.31.24,2.28,2.28,0,0,0-.1.74v.13c0,.11,0,.12.08.12h.49c.05,0,0,.16,0,.18Z"/><path class="cls-2" d="M51.72,35.82c-.21,0-.22,0-.22.14v.61c0,.46,0,.52.26.55h.13s0,.09,0,.11l-.55,0-.51,0a.11.11,0,0,1,0-.11h.08c.24,0,.25-.09.25-.55V35c0-.45,0-.53-.26-.54h-.11s0-.1,0-.11h1s0,.09,0,.11h-.08c-.25,0-.26.09-.26.54v.5c0,.14,0,.14.22.14H53c.21,0,.22,0,.22-.14V35c0-.45,0-.52-.27-.54h-.08s0-.1,0-.11h1a.11.11,0,0,1,0,.11H53.8c-.26,0-.27.09-.27.54v1.57c0,.46,0,.52.27.55h.1s0,.09,0,.11l-.53,0-.52,0s0-.09,0-.11h.08c.27,0,.27-.09.27-.55V36c0-.13,0-.14-.22-.14Z"/><path class="cls-2" d="M55,36.11c-.12,0-.12,0-.12.12a.73.73,0,0,0,.72.81.45.45,0,0,0,.4-.21.05.05,0,0,1,.08.05.75.75,0,0,1-.68.4.78.78,0,0,1-.63-.28,1,1,0,0,1-.19-.57.92.92,0,0,1,.88-1,.58.58,0,0,1,.62.52.23.23,0,0,1,0,.11s-.07,0-.26,0Zm.27-.13a1.17,1.17,0,0,0,.45,0,.11.11,0,0,0,0-.09c0-.12-.09-.27-.34-.27a.49.49,0,0,0-.48.38s0,0,0,0Z"/><path class="cls-2" d="M57.55,36.32c.06,0,.07-.06.07-.12V36c0-.16,0-.38-.31-.38s-.27.06-.28.19,0,.13-.05.15a.46.46,0,0,1-.24.08.05.05,0,0,1-.06-.06c0-.22.49-.53.8-.53s.47.18.46.51l0,.76c0,.19,0,.37.2.37l.11,0a.09.09,0,0,1,.06,0s0,0,0,.05a.45.45,0,0,1-.37.19.33.33,0,0,1-.28-.13s0-.06-.07-.06a.7.7,0,0,0-.17.09.67.67,0,0,1-.31.1.45.45,0,0,1-.31-.1.4.4,0,0,1-.13-.3c0-.17.08-.27.36-.37Zm-.27.77a.52.52,0,0,0,.26-.11c.05,0,.05-.11.06-.2v-.26c0-.05,0-.06,0-.06l-.18,0c-.25.08-.38.15-.38.32A.26.26,0,0,0,57.28,37.09Z"/><path class="cls-2" d="M59.33,36.74c0,.31,0,.35.16.38h.11s0,.09,0,.11l-.42,0-.42,0s0-.09,0-.11h.1c.16,0,.17-.07.17-.38v-2c0-.26,0-.28-.14-.36l0,0s0-.07,0-.08a3.08,3.08,0,0,0,.47-.19.05.05,0,0,1,0,0c0,.13,0,.35,0,.54Z"/><path class="cls-2" d="M60.83,35.69c-.07,0-.08,0-.08.11v.81c0,.25,0,.48.32.48a.25.25,0,0,0,.12,0s.09-.06.1-.06.06.05.05.08a.62.62,0,0,1-.46.19c-.37,0-.45-.2-.45-.47v-1c0-.12,0-.13-.09-.13h-.12a.08.08,0,0,1,0-.09,1.06,1.06,0,0,0,.28-.13,1,1,0,0,0,.18-.26.09.09,0,0,1,.1,0v.2c0,.07,0,.08.07.08h.49a.14.14,0,0,1,0,.18Z"/><path class="cls-2" d="M62.11,34.77c0-.26,0-.28-.13-.36l0,0a0,0,0,0,1,0-.08,3.55,3.55,0,0,0,.47-.19.05.05,0,0,1,0,0c0,.13,0,.35,0,.54v.91s0,.08,0,.08a1,1,0,0,1,.59-.22.51.51,0,0,1,.56.56v.73c0,.31,0,.36.17.38h.12s0,.09,0,.11l-.44,0-.4,0s0-.09,0-.11h.09c.16,0,.16-.07.16-.38v-.63c0-.27-.13-.46-.41-.46a.5.5,0,0,0-.34.12c-.08.06-.09.08-.09.24v.73c0,.31,0,.35.16.38h.09s0,.09,0,.11l-.4,0-.43,0s0-.09,0-.11H62c.16,0,.16-.07.16-.38Z"/><path class="cls-2" d="M66.32,35c0-.46,0-.53-.27-.55h-.11s0-.1,0-.11H67a.11.11,0,0,1,0,.11h-.11c-.26,0-.27.09-.27.55v1.55c0,.46,0,.53.27.56h.11a.11.11,0,0,1,0,.11l-.54,0-.55,0a.09.09,0,0,1,0-.11h.11c.26,0,.27-.1.27-.56Z"/><path class="cls-2" d="M68,36c0-.17,0-.2-.12-.27l0,0s0-.07,0-.08a2.53,2.53,0,0,0,.44-.21.05.05,0,0,1,0,0,1.82,1.82,0,0,0,0,.2,0,0,0,0,0,0,.05,1.19,1.19,0,0,1,.61-.22.48.48,0,0,1,.5.54v.75c0,.31,0,.35.17.38h.1s0,.09,0,.11l-.41,0-.41,0s0-.09,0-.11H69c.16,0,.16-.07.16-.38v-.65a.37.37,0,0,0-.41-.43.49.49,0,0,0-.37.15.39.39,0,0,0-.06.26v.67c0,.31,0,.35.16.38h.08s0,.09,0,.11l-.39,0-.41,0s0-.09,0-.11h.09c.16,0,.17-.07.17-.38Z"/><path class="cls-2" d="M71.81,35.52a.23.23,0,0,1,.07.18c0,.07,0,.16-.1.16a.09.09,0,0,1-.06,0,.6.6,0,0,0-.44-.23.63.63,0,0,0-.6.7.71.71,0,0,0,.7.74.53.53,0,0,0,.49-.26s.07,0,.08.06a.8.8,0,0,1-.73.44.86.86,0,0,1-.6-.22.87.87,0,0,1-.25-.64,1,1,0,0,1,1-1A1.15,1.15,0,0,1,71.81,35.52Z"/><path class="cls-2" d="M73,36.74c0,.31,0,.35.16.38h.11s0,.09,0,.11l-.42,0-.42,0s0-.09,0-.11h.1c.16,0,.17-.07.17-.38v-2c0-.26,0-.28-.14-.36l0,0s0-.07,0-.08a3.08,3.08,0,0,0,.47-.19s0,0,0,0,0,.35,0,.54Z"/><path class="cls-2" d="M74.42,36.58c0,.3.07.51.4.51a.56.56,0,0,0,.36-.14.31.31,0,0,0,.08-.25V36c0-.28,0-.29-.16-.35l0,0s0-.08,0-.09a2.1,2.1,0,0,0,.51-.08s0,0,0,0,0,.22,0,.38v.73c0,.34,0,.47.13.47l.17,0a.11.11,0,0,1,0,.13,2.09,2.09,0,0,0-.57.16.06.06,0,0,1-.06,0v-.18s0-.06,0-.06a1.22,1.22,0,0,1-.61.22c-.38,0-.52-.19-.52-.54V36c0-.27,0-.31-.13-.37l-.06,0s0-.08,0-.09a2,2,0,0,0,.47-.08s0,0,0,0a3.16,3.16,0,0,0,0,.38Z"/><path class="cls-2" d="M77.5,35.53a1,1,0,0,1,.07.35.08.08,0,0,1-.11,0,.42.42,0,0,0-.38-.32.26.26,0,0,0-.28.27c0,.18.18.27.34.36s.44.28.44.59-.3.49-.63.49a.7.7,0,0,1-.46-.13,1.1,1.1,0,0,1,0-.43.07.07,0,0,1,.1,0c.07.24.21.45.46.45a.27.27,0,0,0,.29-.28c0-.2-.17-.31-.34-.4s-.43-.3-.43-.54.26-.49.6-.49A.71.71,0,0,1,77.5,35.53Z"/><path class="cls-2" d="M78.49,36c0-.17,0-.2-.12-.27l0,0s0-.07,0-.08a3,3,0,0,0,.45-.21l0,0c0,.16,0,.36,0,.54v.79c0,.31,0,.35.16.38h.1s0,.09,0,.11l-.41,0-.41,0s0-.09,0-.11h.09c.16,0,.17-.07.17-.38Zm.36-1.25a.21.21,0,0,1-.23.23.21.21,0,0,1-.22-.22.22.22,0,0,1,.23-.23A.22.22,0,0,1,78.85,34.73Z"/><path class="cls-2" d="M79.88,35.94c-.06-.16-.1-.3-.26-.32h-.08s0-.1,0-.11h.76s0,.08,0,.11h-.06c-.13,0-.14,0-.09.18.1.3.22.6.32.83a.76.76,0,0,0,.07.14.57.57,0,0,0,.09-.17c0-.14.2-.52.24-.64a.71.71,0,0,0,.08-.27s0,0-.08-.06h-.1s0-.1,0-.11h.63s0,.08,0,.11h-.06c-.15,0-.19.14-.32.38s-.33.75-.4.93-.09.21-.14.36h-.1a4.51,4.51,0,0,0-.17-.46Z"/><path class="cls-2" d="M82.32,36.11c-.11,0-.11,0-.11.12a.73.73,0,0,0,.72.81.47.47,0,0,0,.4-.21s.07,0,.08.05a.76.76,0,0,1-.69.4.8.8,0,0,1-.63-.28.94.94,0,0,1-.18-.57.91.91,0,0,1,.87-1,.57.57,0,0,1,.62.52,1,1,0,0,1,0,.11s-.08,0-.26,0Zm.27-.13a1.25,1.25,0,0,0,.46,0s0,0,0-.09-.08-.27-.33-.27a.52.52,0,0,0-.49.38s0,0,0,0Z"/><path class="cls-2" d="M86.24,37.29a1.39,1.39,0,0,1-.68-.16,1.8,1.8,0,0,1-.11-.61s.08,0,.1,0a.8.8,0,0,0,.75.65.49.49,0,0,0,.54-.5.66.66,0,0,0-.35-.61l-.42-.27A.92.92,0,0,1,85.6,35a.79.79,0,0,1,.89-.75,1.68,1.68,0,0,1,.4.06.5.5,0,0,0,.16,0,1.93,1.93,0,0,1,.08.54.11.11,0,0,1-.11,0,.58.58,0,0,0-.6-.49.45.45,0,0,0-.51.48.7.7,0,0,0,.37.54l.34.21a1,1,0,0,1,.55.84C87.17,37,86.81,37.29,86.24,37.29Z"/><path class="cls-2" d="M88.44,36.58c0,.3.07.51.4.51a.52.52,0,0,0,.35-.14.28.28,0,0,0,.09-.25V36c0-.28,0-.29-.16-.35l-.06,0s0-.08,0-.09a2.18,2.18,0,0,0,.51-.08s0,0,0,0a3.32,3.32,0,0,0,0,.38v.73c0,.34,0,.47.14.47l.17,0s0,.11,0,.13a2.19,2.19,0,0,0-.57.16.05.05,0,0,1,0,0v-.18s0-.06,0-.06a1.14,1.14,0,0,1-.6.22c-.38,0-.52-.19-.52-.54V36c0-.27,0-.31-.14-.37l0,0s0-.08,0-.09a2,2,0,0,0,.47-.08s0,0,0,0a3.16,3.16,0,0,0,0,.38Z"/><path class="cls-2" d="M90.69,36c0-.17,0-.2-.11-.27l0,0s0-.07,0-.08a3,3,0,0,0,.43-.23s0,0,0,0a1.41,1.41,0,0,0,0,.2s0,0,0,0a1.44,1.44,0,0,1,.6-.2.74.74,0,0,1,.73.79,1,1,0,0,1-1.07,1h-.23s-.07,0-.07.12v.46c0,.31,0,.34.17.37l.17,0s0,.09,0,.11l-.49,0-.41,0a.08.08,0,0,1,0-.11h.09c.16,0,.16-.07.16-.38Zm.32.8a.3.3,0,0,0,.14.27.59.59,0,0,0,.31.09c.36,0,.56-.33.56-.78a.62.62,0,0,0-.58-.7.55.55,0,0,0-.37.12A.38.38,0,0,0,91,36Z"/><path class="cls-2" d="M93.25,36c0-.17,0-.2-.12-.27l0,0s0-.07,0-.08a3.65,3.65,0,0,0,.43-.23s0,0,0,0a1.5,1.5,0,0,0,0,.2s0,0,0,0a1.5,1.5,0,0,1,.61-.2.73.73,0,0,1,.72.79,1,1,0,0,1-1.06,1h-.24s-.06,0-.06.12v.46c0,.31,0,.34.17.37l.17,0s0,.09,0,.11l-.49,0-.41,0s0-.09,0-.11h.09c.16,0,.17-.07.17-.38Zm.32.8a.29.29,0,0,0,.13.27.61.61,0,0,0,.31.09c.36,0,.57-.33.57-.78a.63.63,0,0,0-.59-.7.57.57,0,0,0-.37.12s-.05.11-.05.26Z"/><path class="cls-2" d="M97.4,36.35a.89.89,0,0,1-.92.93.86.86,0,0,1-.89-.89.91.91,0,0,1,.92-.94A.87.87,0,0,1,97.4,36.35Zm-.94-.77c-.28,0-.5.27-.5.75s.18.82.56.82.5-.4.5-.73S96.88,35.58,96.46,35.58Z"/><path class="cls-2" d="M98.33,36c0-.17,0-.2-.12-.27l0,0s0-.07,0-.08a3.48,3.48,0,0,0,.44-.21s0,0,0,0v.25s0,0,0,0a.85.85,0,0,1,.48-.26.18.18,0,0,1,.2.17.19.19,0,0,1-.19.2.17.17,0,0,1-.1,0,.37.37,0,0,0-.19-.07.2.2,0,0,0-.16.09.71.71,0,0,0,0,.33v.6c0,.31,0,.36.17.38H99s0,.09,0,.11l-.48,0-.4,0s0-.09,0-.11h.08c.16,0,.17-.07.17-.38Z"/><path class="cls-2" d="M100.48,35.69c-.08,0-.08,0-.08.11v.81c0,.25,0,.48.32.48a.2.2,0,0,0,.11,0,.91.91,0,0,0,.11-.06s.06.05,0,.08a.62.62,0,0,1-.46.19c-.37,0-.45-.2-.45-.47v-1c0-.12,0-.13-.09-.13h-.13a.07.07,0,0,1,0-.09,1.06,1.06,0,0,0,.28-.13,1,1,0,0,0,.18-.26s.08,0,.09,0v.2c0,.07,0,.08.08.08H101a.14.14,0,0,1,0,.18Z"/><path class="cls-1" d="M21,42V41c6.09,0,8.75-3.12,9.79-5A3.09,3.09,0,0,0,31,32.94a4.69,4.69,0,0,0-3.93-2,14.58,14.58,0,0,0-7.54,1.72c-1.79.87-2.68.39-3.06,0-.74-.72-.7-2.1.1-3.89a9.73,9.73,0,0,1,9.79-5.52l-.06,1a8.74,8.74,0,0,0-8.82,4.94c-.71,1.57-.63,2.46-.32,2.77s1,.22,1.94-.21a15.41,15.41,0,0,1,8-1.82,5.63,5.63,0,0,1,4.73,2.5,4,4,0,0,1-.26,4C28.87,41.44,23.27,42,21,42Z"/><path class="cls-1" d="M1.68,29.22a21,21,0,0,1,2-20.1l.82.56a20,20,0,0,0-1.9,19.15Z"/><path class="cls-1" d="M21,42A20.83,20.83,0,0,1,8.4,37.78L9,37a19.87,19.87,0,0,0,12,4Z"/><path class="cls-1" d="M34.44,37.09l-.63-.76a20,20,0,0,0,5.6-23.13l.91-.38A20.71,20.71,0,0,1,42,21,20.92,20.92,0,0,1,34.44,37.09Z"/><path class="cls-1" d="M33.81,5.64a20,20,0,0,0-23.1-1.81L10.2,3a21,21,0,0,1,24.24,1.9Z"/><path class="cls-1" d="M4.88,36.74a2,2,0,0,1-1-.27c-1.14-.65-1.41-2.35-.69-4.23.95-2.48,3.37-6.25,9.5-10.16,0-.36.07-.73.09-1.1.3-5.39-1.41-10.72-5.07-15.83C6.56,3.61,5.61,3.26,5.12,3.44a1.07,1.07,0,0,0-.54,1.14C4.64,5.75,5.69,7.36,8.43,8L8.19,9c-3.26-.81-4.52-2.86-4.6-4.37A2,2,0,0,1,4.78,2.51c.51-.19,1.91-.37,3.73,2.05,3.8,5.31,5.57,10.86,5.26,16.48,0,.13,0,.26,0,.39a73.1,73.1,0,0,1,16.69-7,15.28,15.28,0,0,1,2.14-4.28c1.85-2.51,3.74-3,4.89-2.59a2,2,0,0,1,1.35,2c0,1.69-1.81,4-6.61,5.36l-1,.28C30.15,19,30.35,23.57,34,27.1c.78.7,1.35.8,1.62.65a.86.86,0,0,0,.26-.92c-.15-.81-1-1.85-2.85-2.13l.15-1c2.39.36,3.47,1.81,3.68,2.94a1.82,1.82,0,0,1-.76,2c-.44.24-1.38.46-2.77-.8-3.81-3.64-4.2-8.35-3.25-12.25a70.84,70.84,0,0,0-16.49,7.14A23.32,23.32,0,0,1,8.55,34.36C7.3,35.91,6,36.74,4.88,36.74Zm7.63-13.31c-4.28,2.84-7.16,5.95-8.39,9.16-.62,1.62-.31,2.7.25,3s1.84.05,3.41-1.89A22.35,22.35,0,0,0,12.51,23.43Zm24.18-15c-.83,0-2,.59-3.31,2.31a14.22,14.22,0,0,0-1.78,3.35l.34-.1c5.65-1.61,5.88-4.14,5.89-4.43a1,1,0,0,0-.69-1.06A1.25,1.25,0,0,0,36.69,8.43Z"/></g></g></svg>